<?xml version="1.0" encoding="utf-8"?>
<!-- Generator: Adobe Illustrator 27.5.0, SVG Export Plug-In . SVG Version: 6.00 Build 0)  -->
<svg version="1.1" xmlns="http://www.w3.org/2000/svg" xmlns:xlink="http://www.w3.org/1999/xlink" x="0px" y="0px"
	 viewBox="0 0 500 500" style="enable-background:new 0 0 500 500;" xml:space="preserve">
<g id="Background_Simple">
	<g>
		<path style="fill:#92E3A9;" d="M236.041,56.097c124.035-11.047,124.245,58.934,180.132,124.129
			c55.887,65.195,67.847,94.754,46.779,169.908c-21.068,75.154-92.064,134.069-179.892,100.688s-138.14-1.325-193.537-30.967
			c-55.397-29.643-75.969-86.913-35.419-154.41C94.652,197.948,83.099,69.717,236.041,56.097z"/>
		<path style="opacity:0.7;fill:#FFFFFF;" d="M236.041,56.097c124.035-11.047,124.245,58.934,180.132,124.129
			c55.887,65.195,67.847,94.754,46.779,169.908c-21.068,75.154-92.064,134.069-179.892,100.688s-138.14-1.325-193.537-30.967
			c-55.397-29.643-75.969-86.913-35.419-154.41C94.652,197.948,83.099,69.717,236.041,56.097z"/>
	</g>
</g>
<g id="Graphics">
	<g>
		<g>
			<g>
				<path style="fill:#263238;" d="M198.03,422.04c-1.2-4.68-4.15-8.61-8.31-11.07c-4.15-2.46-9.02-3.15-13.7-1.95
					c-4.68,1.2-8.61,4.15-11.07,8.31c-1.67,2.82-2.53,5.98-2.53,9.18c0,1.51,0.19,3.02,0.57,4.52c1.21,4.68,4.16,8.61,8.31,11.07
					c2.83,1.68,5.98,2.53,9.18,2.53c1.51,0,3.03-0.19,4.53-0.57c2.99-0.77,5.67-2.25,7.85-4.3c-0.18-0.28-0.35-0.57-0.49-0.87
					c0-0.01-0.01-0.02-0.01-0.03c-2.1,2.03-4.7,3.48-7.6,4.23c-4.26,1.09-8.69,0.52-12.53-1.62c-0.14-0.07-0.28-0.15-0.42-0.23
					c-1.96-1.16-3.64-2.67-4.97-4.44c-1.33-1.78-2.31-3.81-2.88-6.02c-1.13-4.42-0.48-9.02,1.85-12.94
					c2.32-3.93,6.04-6.72,10.46-7.85c1.42-0.37,2.85-0.55,4.27-0.55c3.03,0,6.01,0.81,8.68,2.39c3.92,2.32,6.71,6.04,7.85,10.46
					c0.58,2.25,0.69,4.55,0.35,6.78c0.35-0.06,0.69-0.1,1.03-0.11C198.76,426.68,198.62,424.34,198.03,422.04z"/>
			</g>
			<g>
				<path style="fill:#263238;" d="M192.37,438.89c-1.71,1.55-3.93,3.28-6.14,4.21c-0.45,0.19-0.9,0.36-1.34,0.47
					c-0.45,0.12-0.93,0.19-1.41,0.24c-4.98,0.52-11.69-2.01-11.69-2.01s0.17-0.13,0.44-0.33c0.97-0.7,3.24-2.31,4.04-2.51
					c1.03-0.27,2.79-1.52,2.01-4.22c0,0-4.35-3.1-5.74-9.38c-0.62-2.74-2.03-8.05,3.57-10.26v-0.01c0.42-0.16,0.87-0.3,1.36-0.43
					c0.48-0.12,0.95-0.21,1.39-0.28l0.01,0.02c5.97-0.76,7.29,4.57,8.07,7.26c1.8,6.18-0.52,10.99-0.52,10.99
					c0.62,2.74,2.76,3,3.79,2.73c0.3-0.07,0.86-0.08,1.51-0.05c-0.06,0.76,0,1.54,0.2,2.31c0.11,0.43,0.26,0.83,0.44,1.22
					C192.36,438.87,192.37,438.88,192.37,438.89z"/>
			</g>
			<g>
				<g>
					<path style="fill:#263238;" d="M198.637,443.36c-1.317,0-2.615-0.353-3.778-1.041c-1.712-1.013-2.927-2.632-3.421-4.559
						c-0.494-1.927-0.209-3.931,0.804-5.643c1.013-1.712,2.632-2.927,4.559-3.421c1.926-0.493,3.93-0.209,5.642,0.804
						s2.927,2.632,3.421,4.559l0,0c0.494,1.927,0.209,3.931-0.804,5.642c-1.013,1.712-2.632,2.927-4.559,3.421
						C199.883,443.281,199.258,443.36,198.637,443.36z M198.662,429.461c-0.538,0-1.079,0.067-1.614,0.205
						c-1.668,0.428-3.07,1.48-3.947,2.961c-0.876,1.482-1.124,3.218-0.696,4.886c0.428,1.668,1.48,3.069,2.962,3.946
						c1.481,0.877,3.216,1.123,4.884,0.695c1.668-0.428,3.07-1.479,3.947-2.961c0.876-1.482,1.124-3.218,0.696-4.886
						c-0.428-1.668-1.48-3.069-2.962-3.946C200.926,429.766,199.802,429.461,198.662,429.461z"/>
				</g>
				<g>
					<g>
						<path style="fill:#263238;" d="M198.207,435.609l-1.237-2.864l1.629-0.418l0.295,3.105l2.348-2.049l0.901,1.408l-2.837,1.268
							l2.66,1.573l-1.057,1.293l-2.08-2.32l-0.706,3.035l-1.547-0.625l1.572-2.659l-3.097,0.254l0.114-1.668L198.207,435.609z"/>
					</g>
				</g>
			</g>
			<g>
				<path style="fill:#263238;" d="M186.061,414.795c-5.135-5.615-8.931-1.45-8.931-1.45s-5.333-1.823-7.129,5.571
					c-1.797,7.394,3.439,13.216-0.994,15.668c0,0,5.642,2.397,13.66,0.34c8.018-2.057,11.809-6.875,11.809-6.875
					C189.41,428.034,191.195,420.411,186.061,414.795z"/>
			</g>
		</g>
		<g>
			<g>
				<path style="fill:#263238;" d="M470.744,250.585c0.738-3.23,0.174-6.551-1.589-9.357c-1.757-2.803-4.509-4.752-7.738-5.491
					c-3.229-0.738-6.551-0.174-9.357,1.589c-1.903,1.195-3.42,2.851-4.425,4.801c-0.474,0.92-0.833,1.9-1.072,2.934
					c-0.732,3.233-0.168,6.555,1.589,9.357c1.198,1.913,2.851,3.42,4.801,4.425c0.92,0.474,1.907,0.836,2.94,1.075
					c2.064,0.47,4.163,0.409,6.135-0.156c-0.022-0.227-0.034-0.457-0.025-0.684c0.003-0.006,0-0.015,0.003-0.022
					c-1.918,0.578-3.958,0.645-5.961,0.192c-2.939-0.673-5.46-2.412-7.129-4.922c-0.063-0.087-0.124-0.179-0.184-0.272
					c-0.83-1.322-1.38-2.77-1.635-4.267c-0.252-1.503-0.212-3.048,0.135-4.574c0.699-3.049,2.54-5.649,5.191-7.306
					c2.648-1.667,5.792-2.199,8.841-1.5c0.982,0.22,1.91,0.56,2.775,1.006c1.847,0.951,3.409,2.381,4.54,4.182
					c1.661,2.645,2.193,5.789,1.5,8.841c-0.353,1.554-1.008,2.99-1.916,4.243c0.232,0.073,0.452,0.156,0.662,0.256
					C469.732,253.642,470.381,252.172,470.744,250.585z"/>
			</g>
			<g>
				<path style="fill:#263238;" d="M462.003,259.078c-1.529,0.408-3.426,0.765-5.065,0.638c-0.334-0.026-0.662-0.063-0.964-0.134
					c-0.312-0.068-0.626-0.176-0.935-0.297c-3.199-1.247-6.494-4.896-6.494-4.896s0.145-0.026,0.372-0.063
					c0.811-0.122,2.7-0.391,3.251-0.261c0.713,0.159,2.178-0.05,2.55-1.941c0,0-1.678-3.256-0.553-7.52
					c0.482-1.865,1.29-5.544,5.398-5.133l0.003-0.006c0.306,0.034,0.624,0.09,0.964,0.165c0.33,0.078,0.645,0.17,0.935,0.266
					l0,0.015c3.878,1.411,3.008,5.075,2.639,6.959c-0.843,4.332-3.768,6.535-3.768,6.535c-0.482,1.865,0.74,2.695,1.453,2.854
					c0.205,0.052,0.549,0.221,0.936,0.444c-0.275,0.444-0.484,0.939-0.603,1.471c-0.068,0.297-0.102,0.588-0.115,0.882
					C462.003,259.063,462.006,259.072,462.003,259.078z"/>
			</g>
			<g>
				<g>
					<path style="fill:#263238;" d="M464.418,263.771c-0.803-0.414-1.483-1.036-1.976-1.821c-0.725-1.155-0.958-2.523-0.654-3.853
						c0.304-1.33,1.107-2.462,2.262-3.187c1.155-0.725,2.523-0.957,3.853-0.654c1.329,0.304,2.461,1.107,3.187,2.262
						c0.725,1.155,0.957,2.523,0.654,3.853l0,0c-0.304,1.33-1.107,2.462-2.262,3.187c-1.155,0.725-2.523,0.958-3.853,0.654
						C465.203,264.114,464.797,263.966,464.418,263.771z M468.799,255.307c-0.328-0.169-0.679-0.298-1.048-0.382
						c-1.151-0.263-2.336-0.062-3.335,0.565c-1,0.628-1.696,1.608-1.958,2.76c-0.263,1.151-0.062,2.336,0.566,3.336
						c0.628,1,1.608,1.694,2.759,1.957c1.151,0.263,2.336,0.062,3.335-0.565c1-0.628,1.695-1.608,1.958-2.759
						c0.263-1.151,0.062-2.336-0.566-3.336C470.083,256.203,469.493,255.665,468.799,255.307z"/>
				</g>
				<g>
					<g>
						<path style="fill:#263238;" d="M466.59,258.911l0.146-2.134l1.124,0.257l-0.795,1.985l2.074-0.511l0.107,1.141l-2.127-0.118
							l1.128,1.794l-1.05,0.456l-0.539-2.067l-1.383,1.628l-0.747-0.867l1.793-1.127l-1.967-0.818l0.593-0.981L466.59,258.911z"/>
					</g>
				</g>
			</g>
			<g>
				<path style="fill:#263238;" d="M465.723,242.411c-1.366-5.035-4.988-3.688-4.988-3.688s-2.678-2.786-6.095,1.157
					c-3.417,3.943-2.054,9.135-5.526,9.238c0,0,2.686,3.233,8.219,4.497c5.533,1.264,9.357-0.482,9.357-0.482
					C463.607,251.532,467.089,247.446,465.723,242.411z"/>
			</g>
		</g>
		<g>
			<g>
				<path style="fill:#263238;" d="M335.132,80.315c0.809-4.763-0.286-9.554-3.085-13.494c-2.79-3.936-6.957-6.548-11.72-7.357
					c-4.763-0.809-9.554,0.286-13.494,3.085c-2.673,1.896-4.745,4.433-6.047,7.356c-0.615,1.379-1.055,2.836-1.319,4.361
					c-0.799,4.767,0.296,9.558,3.085,13.494c1.901,2.686,4.433,4.745,7.356,6.047c1.379,0.615,2.845,1.06,4.37,1.323
					c3.045,0.514,6.095,0.252,8.921-0.733c-0.05-0.329-0.088-0.663-0.094-0.994c0.004-0.009-0.001-0.022,0.003-0.031
					c-2.744,1-5.71,1.266-8.664,0.771c-4.335-0.738-8.149-3.062-10.786-6.579c-0.099-0.121-0.195-0.251-0.29-0.381
					c-1.318-1.857-2.238-3.92-2.733-6.078c-0.49-2.167-0.559-4.42-0.18-6.671c0.767-4.497,3.233-8.434,6.956-11.067
					c3.719-2.646,8.252-3.68,12.749-2.913c1.448,0.24,2.827,0.658,4.124,1.236c2.768,1.233,5.16,3.186,6.956,5.716
					c2.636,3.715,3.671,8.248,2.913,12.749c-0.386,2.291-1.222,4.437-2.44,6.336c0.344,0.088,0.671,0.189,0.986,0.319
					C333.91,84.85,334.735,82.656,335.132,80.315z"/>
			</g>
			<g>
				<path style="fill:#263238;" d="M323.104,93.402c-2.193,0.72-4.925,1.397-7.322,1.347c-0.488-0.01-0.969-0.037-1.415-0.116
					c-0.46-0.074-0.927-0.205-1.386-0.355c-4.76-1.552-9.86-6.594-9.86-6.594s0.208-0.049,0.536-0.122
					c1.171-0.245,3.9-0.791,4.712-0.649c1.051,0.173,3.167-0.253,3.553-3.036c0,0-2.712-4.602-1.426-10.904
					c0.549-2.755,1.422-8.179,7.437-7.919l0.004-0.009c0.449,0.025,0.917,0.08,1.417,0.161c0.487,0.086,0.953,0.195,1.384,0.31
					l0.001,0.022c5.762,1.736,4.799,7.141,4.417,9.916c-0.871,6.377-4.948,9.827-4.948,9.827c-0.549,2.755,1.3,3.864,2.351,4.036
					c0.302,0.058,0.818,0.277,1.4,0.569c-0.364,0.67-0.627,1.407-0.758,2.191c-0.074,0.438-0.1,0.864-0.095,1.294
					C323.103,93.38,323.108,93.393,323.104,93.402z"/>
			</g>
			<g>
				<g>
					<path style="fill:#263238;" d="M327.009,100.036c-1.203-0.536-2.245-1.386-3.028-2.489c-1.152-1.622-1.602-3.595-1.27-5.556
						c0.333-1.961,1.409-3.675,3.031-4.827c1.622-1.152,3.595-1.602,5.556-1.27c1.96,0.334,3.675,1.409,4.827,3.031
						c1.151,1.622,1.602,3.595,1.27,5.556l0,0c-0.333,1.961-1.409,3.675-3.031,4.827c-1.622,1.152-3.595,1.602-5.556,1.269
						C328.18,100.471,327.576,100.289,327.009,100.036z M332.689,87.351c-0.491-0.219-1.013-0.378-1.557-0.469
						c-1.698-0.288-3.406,0.102-4.81,1.098c-1.404,0.997-2.336,2.482-2.624,4.18c-0.288,1.698,0.103,3.406,1.099,4.81
						c0.996,1.404,2.481,2.335,4.178,2.623c1.698,0.288,3.406-0.102,4.81-1.098c1.404-0.997,2.336-2.482,2.624-4.18
						c0.288-1.698-0.103-3.406-1.099-4.81C334.632,88.55,333.73,87.814,332.689,87.351z"/>
				</g>
				<g>
					<g>
						<path style="fill:#263238;" d="M329.771,92.781l0.036-3.119l1.658,0.281L330.47,92.9l2.978-0.916l0.25,1.652l-3.107,0.004
							l1.79,2.52l-1.492,0.751l-0.956-2.966l-1.88,2.485l-1.159-1.2l2.518-1.789l-2.932-1.028l0.783-1.477L329.771,92.781z"/>
					</g>
				</g>
			</g>
		</g>
		<g>
			<path style="fill:none;stroke:#263238;stroke-linecap:round;stroke-linejoin:round;stroke-miterlimit:10;" d="M199.69,79.636
				l-28.232,4.678c-1.035,0.172-2.014-0.529-2.185-1.564l-2.834-17.107c-0.172-1.035,0.529-2.014,1.564-2.185l28.232-4.678
				c1.035-0.172,2.014,0.529,2.185,1.564l2.834,17.107C201.425,78.486,200.725,79.464,199.69,79.636z"/>
			<path style="fill:none;stroke:#263238;stroke-linecap:round;stroke-linejoin:round;stroke-miterlimit:10;" d="M166.541,66.266
				l15.43,6.741c1.388,0.606,3.002,0.339,4.12-0.683l12.431-11.357"/>
			<path style="fill:none;stroke:#263238;stroke-linecap:round;stroke-linejoin:round;stroke-miterlimit:10;" d="M171.89,79.945
				c2.267-1.818,4.534-3.636,6.801-5.454"/>
			<path style="fill:none;stroke:#263238;stroke-linecap:round;stroke-linejoin:round;stroke-miterlimit:10;" d="M197.872,75.64
				c-2.732-0.99-5.465-1.979-8.197-2.969"/>
		</g>
		<g>
			<path style="fill:none;stroke:#263238;stroke-linecap:round;stroke-linejoin:round;stroke-miterlimit:10;" d="M305.835,435.295
				l-24.732-14.397c-0.907-0.528-1.214-1.691-0.686-2.598l8.724-14.986c0.528-0.907,1.691-1.214,2.598-0.686l24.732,14.397
				c0.907,0.528,1.214,1.691,0.686,2.598l-8.724,14.986C307.905,435.516,306.742,435.823,305.835,435.295z"/>
			<path style="fill:none;stroke:#263238;stroke-linecap:round;stroke-linejoin:round;stroke-miterlimit:10;" d="M288.823,403.86
				l7.589,15.031c0.682,1.352,2.097,2.175,3.609,2.101l16.818-0.823"/>
			<path style="fill:none;stroke:#263238;stroke-linecap:round;stroke-linejoin:round;stroke-miterlimit:10;" d="M284.221,417.808
				c2.906,0.045,5.811,0.09,8.717,0.135"/>
			<path style="fill:none;stroke:#263238;stroke-linecap:round;stroke-linejoin:round;stroke-miterlimit:10;" d="M306.982,431.057
				c-1.474-2.505-2.948-5.009-4.422-7.514"/>
		</g>
		<g>
			<path style="fill:none;stroke:#263238;stroke-linecap:round;stroke-linejoin:round;stroke-miterlimit:10;" d="M62.926,310.479
				l-25.188,13.583c-0.924,0.498-2.076,0.153-2.574-0.771l-8.23-15.262c-0.498-0.924-0.153-2.076,0.771-2.574l25.188-13.583
				c0.924-0.498,2.076-0.153,2.574,0.771l8.23,15.262C64.195,308.828,63.849,309.981,62.926,310.479z"/>
			<path style="fill:none;stroke:#263238;stroke-linecap:round;stroke-linejoin:round;stroke-miterlimit:10;" d="M27.233,308.585
				l16.782,1.371c1.509,0.123,2.95-0.653,3.676-1.982l8.075-14.776"/>
			<path style="fill:none;stroke:#263238;stroke-linecap:round;stroke-linejoin:round;stroke-miterlimit:10;" d="M36.729,319.789
				c1.555-2.455,3.11-4.91,4.664-7.365"/>
			<path style="fill:none;stroke:#263238;stroke-linecap:round;stroke-linejoin:round;stroke-miterlimit:10;" d="M59.91,307.289
				c-2.906-0.05-5.811-0.1-8.717-0.15"/>
		</g>
	</g>
</g>
<g id="Device">
	<g>
		<path style="fill:#263238;stroke:#263238;stroke-linecap:round;stroke-linejoin:round;stroke-miterlimit:10;" d="M74.549,113.871
			v282.05c0,1.59,1.29,2.87,2.86,2.87h171.5c1.58,0,2.87-1.28,2.87-2.87v-282.05c0-3.6-2.94-6.54-6.54-6.54h-40.85
			c-1.62,0-3.06,1.07-3.52,2.63c-0.23,0.78-0.7,1.44-1.32,1.9c-0.62,0.46-1.39,0.73-2.2,0.73h-68.37c-1.63,0-3.06-1.07-3.52-2.63
			c-0.23-0.78-0.7-1.44-1.33-1.9c-0.62-0.46-1.39-0.73-2.2-0.73h-40.84C77.489,107.331,74.549,110.271,74.549,113.871z"/>
		
			<rect x="74.549" y="130.143" transform="matrix(-1 -1.224647e-16 1.224647e-16 -1 326.328 295.5872)" style="fill:#92E3A9;stroke:#263238;stroke-linecap:round;stroke-linejoin:round;stroke-miterlimit:10;" width="177.23" height="35.301"/>
		
			<rect x="74.549" y="165.444" transform="matrix(-1 -1.224647e-16 1.224647e-16 -1 326.328 527.8402)" style="fill:#FFFFFF;stroke:#263238;stroke-linecap:round;stroke-linejoin:round;stroke-miterlimit:10;" width="177.23" height="196.952"/>
		<path style="fill:#FFFFFF;stroke:#263238;stroke-linecap:round;stroke-linejoin:round;stroke-miterlimit:10;" d="M162.736,384.213
			h5.538c1.821,0,3.297-1.476,3.297-3.297v-5.538c0-1.821-1.476-3.297-3.297-3.297h-5.538c-1.821,0-3.297,1.476-3.297,3.297v5.538
			C159.439,382.737,160.915,384.213,162.736,384.213z"/>
		<g>
			
				<line style="fill:none;stroke:#263238;stroke-linecap:round;stroke-linejoin:round;stroke-miterlimit:10;" x1="93.384" y1="142.784" x2="84.681" y2="142.784"/>
			
				<line style="fill:none;stroke:#263238;stroke-linecap:round;stroke-linejoin:round;stroke-miterlimit:10;" x1="93.384" y1="147.564" x2="84.681" y2="147.564"/>
			
				<line style="fill:none;stroke:#263238;stroke-linecap:round;stroke-linejoin:round;stroke-miterlimit:10;" x1="93.384" y1="152.344" x2="84.681" y2="152.344"/>
		</g>
		<g>
			<path style="fill:#263238;" d="M147.315,185.476h-29.275c-1.092,0-1.978-0.886-1.978-1.978l0,0c0-1.092,0.886-1.978,1.978-1.978
				h29.275c1.092,0,1.978,0.886,1.978,1.978l0,0C149.293,184.591,148.408,185.476,147.315,185.476z"/>
			<path style="fill:#263238;" d="M218.788,190.388h-101.67c-0.583,0-1.055-0.472-1.055-1.055l0,0c0-0.583,0.472-1.055,1.055-1.055
				h101.67c0.583,0,1.055,0.472,1.055,1.055l0,0C219.843,189.916,219.37,190.388,218.788,190.388z"/>
			
				<ellipse transform="matrix(0.7358 -0.6772 0.6772 0.7358 -100.013 116.1867)" style="fill:#FFFFFF;stroke:#263238;stroke-linecap:round;stroke-linejoin:round;stroke-miterlimit:10;" cx="98.912" cy="186.281" rx="10.879" ry="10.879"/>
			<path style="fill:#263238;" d="M99.791,197.085L99.791,197.085c3.063-0.455,6.696-3.002,6.696-3.002s-2.464-1.01-3.123-1.01
				c-0.659,0-1.903-0.483-1.852-2.222c0,0,2.127-2.525,2-6.502c-0.056-1.735-0.026-5.133-3.72-5.594v-0.011
				c-0.278-0.028-0.569-0.045-0.88-0.045l0,0h0c-0.31,0-0.601,0.017-0.88,0.045v0.011c-3.694,0.461-3.665,3.858-3.72,5.594
				c-0.127,3.977,2,6.502,2,6.502c0.051,1.739-1.193,2.222-1.852,2.222c-0.659,0-3.123,1.01-3.123,1.01s3.632,2.547,6.696,3.002l0,0
				c0,0,0,0,0,0c0.299,0.044,0.595,0.076,0.879,0.076c0,0,0,0,0,0h0l0,0c0,0,0,0,0,0C99.196,197.161,99.492,197.129,99.791,197.085
				C99.791,197.085,99.791,197.085,99.791,197.085z"/>
			<g>
				
					<circle style="fill:#92E3A9;stroke:#263238;stroke-linecap:round;stroke-linejoin:round;stroke-miterlimit:10;" cx="108.337" cy="194.686" r="4.297"/>
				<g>
					<path style="fill:#263238;" d="M108.117,194.437l-0.301-1.906h1.04l-0.301,1.906l1.722-0.867l0.323,0.982l-1.895,0.324
						l1.352,1.351l-0.832,0.612l-0.89-1.71l-0.89,1.71l-0.831-0.612l1.351-1.351l-1.895-0.324l0.325-0.982L108.117,194.437z"/>
				</g>
			</g>
			<path style="fill:#263238;" d="M104.04,180.099c-2.213-4.154-5.128-2.242-5.128-2.242s-2.915-1.912-5.128,2.242
				c-2.213,4.154,0.029,8.447-3.004,9.234c0,0,3.012,2.304,8.132,2.304c5.12,0,8.132-2.304,8.132-2.304
				C104.011,188.546,106.253,184.253,104.04,180.099z"/>
		</g>
		<g>
			<g>
				
					<rect x="100.856" y="122.273" transform="matrix(-1 -1.224647e-16 1.224647e-16 -1 203.6963 248.5872)" style="fill:#FFFFFF;" width="1.984" height="4.041"/>
				
					<rect x="97.219" y="120.638" transform="matrix(-1 -1.224647e-16 1.224647e-16 -1 196.4217 246.9526)" style="fill:#FFFFFF;" width="1.984" height="5.676"/>
				
					<rect x="93.582" y="119.004" transform="matrix(-1 -1.224647e-16 1.224647e-16 -1 189.1472 245.3181)" style="fill:#FFFFFF;" width="1.984" height="7.311"/>
				
					<rect x="89.945" y="117.369" transform="matrix(-1 -1.224647e-16 1.224647e-16 -1 181.8726 243.6836)" style="fill:#FFFFFF;" width="1.984" height="8.945"/>
			</g>
			<g>
				<path style="fill:#FFFFFF;" d="M227.994,118.187h10.656c0.659,0,1.192,0.534,1.192,1.192v4.926c0,0.659-0.534,1.192-1.192,1.192
					h-10.656c-0.659,0-1.192-0.534-1.192-1.192v-4.926C226.802,118.72,227.335,118.187,227.994,118.187z"/>
				<path style="fill:#FFFFFF;" d="M224.253,119.715h1.018v4.253h-1.018c-0.541,0-0.979-0.438-0.979-0.979v-2.295
					C223.274,120.154,223.712,119.715,224.253,119.715z"/>
			</g>
		</g>
		<g>
			<path style="fill:none;stroke:#263238;stroke-linecap:round;stroke-linejoin:round;stroke-miterlimit:10;" d="M239.683,142.798
				c1.715,1.715,1.715,4.497,0,6.212c-1.715,1.716-4.497,1.716-6.212,0c-1.715-1.715-1.715-4.497,0-6.212
				S237.967,141.083,239.683,142.798z"/>
			
				<line style="fill:none;stroke:#263238;stroke-linecap:round;stroke-linejoin:round;stroke-miterlimit:10;" x1="239.683" y1="149.011" x2="244.289" y2="153.617"/>
		</g>
		<g>
			<path style="fill:#263238;stroke:#92E3A9;stroke-linecap:round;stroke-linejoin:round;stroke-miterlimit:10;" d="
				M174.902,155.497h-20.53c-1.049,0-1.9-0.851-1.9-1.9v-12.066c0-1.049,0.851-1.9,1.9-1.9h20.53c1.049,0,1.9,0.851,1.9,1.9v12.066
				C176.802,154.647,175.951,155.497,174.902,155.497z"/>
			<path style="fill:#263238;stroke:#92E3A9;stroke-linecap:round;stroke-linejoin:round;stroke-miterlimit:10;" d="
				M152.473,141.531l10.598,6.884c0.953,0.619,2.181,0.619,3.134,0l10.598-6.884"/>
			<path style="fill:#263238;stroke:#92E3A9;stroke-linecap:round;stroke-linejoin:round;stroke-miterlimit:10;" d="
				M154.755,152.316c1.902-1.068,3.803-2.136,5.705-3.204"/>
			<path style="fill:#263238;stroke:#92E3A9;stroke-linecap:round;stroke-linejoin:round;stroke-miterlimit:10;" d="M174.52,152.316
				c-1.902-1.068-3.803-2.136-5.705-3.204"/>
		</g>
		<g>
			<path style="fill:#263238;" d="M137.315,220.345h-19.275c-1.092,0-1.978-0.886-1.978-1.978l0,0c0-1.092,0.886-1.978,1.978-1.978
				h19.275c1.092,0,1.978,0.886,1.978,1.978l0,0C139.293,219.459,138.408,220.345,137.315,220.345z"/>
			<path style="fill:#263238;" d="M178.788,225.257h-61.67c-0.583,0-1.055-0.472-1.055-1.055l0,0c0-0.583,0.472-1.055,1.055-1.055
				h61.67c0.583,0,1.055,0.472,1.055,1.055l0,0C179.843,224.785,179.37,225.257,178.788,225.257z"/>
			
				<ellipse transform="matrix(0.7168 -0.6972 0.6972 0.7168 -126.1861 131.585)" style="fill:#FFFFFF;stroke:#263238;stroke-linecap:round;stroke-linejoin:round;stroke-miterlimit:10;" cx="98.912" cy="221.15" rx="10.879" ry="10.879"/>
			<path style="fill:#263238;" d="M99.791,231.953L99.791,231.953c3.063-0.455,6.696-3.002,6.696-3.002s-2.464-1.01-3.123-1.01
				c-0.659,0-1.903-0.483-1.852-2.222c0,0,2.127-2.525,2-6.502c-0.056-1.735-0.026-5.133-3.72-5.594v-0.011
				c-0.278-0.028-0.569-0.045-0.88-0.045l0,0h0c-0.31,0-0.601,0.017-0.88,0.045v0.011c-3.694,0.461-3.665,3.858-3.72,5.594
				c-0.127,3.978,2,6.502,2,6.502c0.051,1.739-1.193,2.222-1.852,2.222c-0.659,0-3.123,1.01-3.123,1.01s3.632,2.547,6.696,3.002l0,0
				c0,0,0,0,0,0c0.299,0.044,0.595,0.076,0.879,0.076c0,0,0,0,0,0h0l0,0c0,0,0,0,0,0C99.196,232.029,99.492,231.997,99.791,231.953
				C99.791,231.953,99.791,231.953,99.791,231.953z"/>
			<g>
				
					<circle style="fill:#92E3A9;stroke:#263238;stroke-linecap:round;stroke-linejoin:round;stroke-miterlimit:10;" cx="108.337" cy="229.554" r="4.297"/>
				<g>
					<path style="fill:#263238;" d="M108.117,229.306l-0.301-1.906h1.04l-0.301,1.906l1.722-0.867l0.323,0.982l-1.895,0.324
						l1.352,1.351l-0.832,0.612l-0.89-1.71l-0.89,1.71l-0.831-0.612l1.351-1.351l-1.895-0.324l0.325-0.982L108.117,229.306z"/>
				</g>
			</g>
		</g>
		<g>
			<path style="fill:#263238;" d="M157.315,255.214h-39.275c-1.092,0-1.978-0.886-1.978-1.978l0,0c0-1.092,0.886-1.978,1.978-1.978
				h39.275c1.092,0,1.978,0.886,1.978,1.978l0,0C159.293,254.328,158.408,255.214,157.315,255.214z"/>
			<path style="fill:#263238;" d="M198.788,260.126h-81.67c-0.583,0-1.055-0.472-1.055-1.055l0,0c0-0.583,0.472-1.055,1.055-1.055
				h81.67c0.583,0,1.055,0.472,1.055,1.055l0,0C199.843,259.653,199.37,260.126,198.788,260.126z"/>
			
				<ellipse transform="matrix(0.9712 -0.2381 0.2381 0.9712 -58.1183 30.9172)" style="fill:#FFFFFF;stroke:#263238;stroke-linecap:round;stroke-linejoin:round;stroke-miterlimit:10;" cx="98.912" cy="256.019" rx="10.879" ry="10.879"/>
			<path style="fill:#263238;" d="M99.791,266.822L99.791,266.822c3.063-0.455,6.696-3.002,6.696-3.002s-2.464-1.01-3.123-1.01
				c-0.659,0-1.903-0.483-1.852-2.222c0,0,2.127-2.525,2-6.502c-0.056-1.735-0.026-5.133-3.72-5.594v-0.011
				c-0.278-0.028-0.569-0.045-0.88-0.045l0,0h0c-0.31,0-0.601,0.017-0.88,0.045v0.011c-3.694,0.461-3.665,3.858-3.72,5.594
				c-0.127,3.978,2,6.502,2,6.502c0.051,1.739-1.193,2.222-1.852,2.222c-0.659,0-3.123,1.01-3.123,1.01s3.632,2.547,6.696,3.002l0,0
				c0,0,0,0,0,0c0.299,0.044,0.595,0.076,0.879,0.076c0,0,0,0,0,0h0l0,0c0,0,0,0,0,0C99.196,266.898,99.492,266.866,99.791,266.822
				C99.791,266.822,99.791,266.822,99.791,266.822z"/>
			<path style="fill:#263238;" d="M98.912,247.813c-3.913,0-6.651,2.703-7.161,12.479c0,0,2.865,1.169,7.161,1.169
				c4.296,0,7.161-1.169,7.161-1.169C105.562,250.516,102.824,247.813,98.912,247.813z"/>
		</g>
		<g>
			<path style="fill:#263238;" d="M147.315,290.082h-29.275c-1.092,0-1.978-0.886-1.978-1.978l0,0c0-1.092,0.886-1.978,1.978-1.978
				h29.275c1.092,0,1.978,0.886,1.978,1.978l0,0C149.293,289.197,148.408,290.082,147.315,290.082z"/>
			<path style="fill:#263238;" d="M218.788,294.994h-101.67c-0.583,0-1.055-0.472-1.055-1.055l0,0c0-0.583,0.472-1.055,1.055-1.055
				h101.67c0.583,0,1.055,0.472,1.055,1.055l0,0C219.843,294.522,219.37,294.994,218.788,294.994z"/>
			
				<ellipse transform="matrix(0.7168 -0.6972 0.6972 0.7168 -174.8093 151.3317)" style="fill:#FFFFFF;stroke:#263238;stroke-linecap:round;stroke-linejoin:round;stroke-miterlimit:10;" cx="98.912" cy="290.887" rx="10.879" ry="10.879"/>
			<path style="fill:#263238;" d="M99.791,301.69L99.791,301.69c3.063-0.455,6.696-3.002,6.696-3.002s-2.464-1.01-3.123-1.01
				c-0.659,0-1.903-0.483-1.852-2.222c0,0,2.127-2.525,2-6.502c-0.056-1.735-0.026-5.133-3.72-5.594v-0.011
				c-0.278-0.028-0.569-0.045-0.88-0.045l0,0h0c-0.31,0-0.601,0.017-0.88,0.045v0.011c-3.694,0.461-3.665,3.858-3.72,5.594
				c-0.127,3.978,2,6.502,2,6.502c0.051,1.739-1.193,2.222-1.852,2.222c-0.659,0-3.123,1.01-3.123,1.01s3.632,2.547,6.696,3.002l0,0
				c0,0,0,0,0,0c0.299,0.044,0.595,0.076,0.879,0.076c0,0,0,0,0,0h0l0,0c0,0,0,0,0,0C99.196,301.766,99.492,301.735,99.791,301.69
				C99.791,301.69,99.791,301.69,99.791,301.69z"/>
			<g>
				
					<circle style="fill:#92E3A9;stroke:#263238;stroke-linecap:round;stroke-linejoin:round;stroke-miterlimit:10;" cx="108.337" cy="299.291" r="4.297"/>
				<g>
					<path style="fill:#263238;" d="M108.117,299.043l-0.301-1.906h1.04l-0.301,1.906l1.722-0.867l0.323,0.982l-1.895,0.324
						l1.352,1.351l-0.832,0.612l-0.89-1.71l-0.89,1.71l-0.831-0.612l1.351-1.351l-1.895-0.324l0.325-0.982L108.117,299.043z"/>
				</g>
			</g>
		</g>
		<g>
			<path style="fill:#263238;" d="M127.315,324.951h-9.275c-1.092,0-1.978-0.886-1.978-1.978l0,0c0-1.092,0.886-1.978,1.978-1.978
				h9.275c1.092,0,1.978,0.886,1.978,1.978l0,0C129.293,324.065,128.408,324.951,127.315,324.951z"/>
			<path style="fill:#263238;" d="M208.788,329.863h-91.67c-0.583,0-1.055-0.472-1.055-1.055l0,0c0-0.583,0.472-1.055,1.055-1.055
				h91.67c0.583,0,1.055,0.472,1.055,1.055l0,0C209.843,329.391,209.37,329.863,208.788,329.863z"/>
			
				<ellipse transform="matrix(0.7168 -0.6972 0.6972 0.7168 -199.121 161.205)" style="fill:#FFFFFF;stroke:#263238;stroke-linecap:round;stroke-linejoin:round;stroke-miterlimit:10;" cx="98.912" cy="325.756" rx="10.879" ry="10.879"/>
			<path style="fill:#263238;" d="M99.791,336.559L99.791,336.559c3.063-0.455,6.696-3.002,6.696-3.002s-2.464-1.01-3.123-1.01
				c-0.659,0-1.903-0.483-1.852-2.222c0,0,2.127-2.525,2-6.502c-0.056-1.735-0.026-5.133-3.72-5.594v-0.011
				c-0.278-0.028-0.569-0.045-0.88-0.045l0,0h0c-0.31,0-0.601,0.017-0.88,0.045v0.011c-3.694,0.461-3.665,3.858-3.72,5.594
				c-0.127,3.977,2,6.502,2,6.502c0.051,1.739-1.193,2.222-1.852,2.222c-0.659,0-3.123,1.01-3.123,1.01s3.632,2.547,6.696,3.002l0,0
				c0,0,0,0,0,0c0.299,0.044,0.595,0.076,0.879,0.076c0,0,0,0,0,0h0l0,0c0,0,0,0,0,0C99.196,336.635,99.492,336.603,99.791,336.559
				C99.791,336.559,99.791,336.559,99.791,336.559z"/>
		</g>
		<g>
			<path style="fill:#263238;" d="M147.315,359.819h-29.275c-1.092,0-1.978-0.886-1.978-1.978l0,0c0-1.092,0.886-1.978,1.978-1.978
				h29.275c1.092,0,1.978,0.886,1.978,1.978l0,0C149.293,358.934,148.408,359.819,147.315,359.819z"/>
			<path style="fill:#FFFFFF;stroke:#263238;stroke-linecap:round;stroke-linejoin:round;stroke-miterlimit:10;" d="M109.79,360.62
				c0,0.61-0.05,1.2-0.15,1.78H88.18c-0.1-0.58-0.15-1.17-0.15-1.78c0-6,4.87-10.87,10.88-10.87
				C104.92,349.75,109.79,354.62,109.79,360.62z"/>
			<path style="fill:#263238;" d="M103.51,358.69c0.05,1.45-0.2,2.7-0.55,3.71h-8.1c-0.35-1.01-0.6-2.26-0.55-3.71
				c0.06-1.73,0.03-5.13,3.72-5.59v-0.01c0.28-0.03,0.57-0.05,0.88-0.05c0.31,0,0.6,0.02,0.88,0.05v0.01
				C103.49,353.56,103.46,356.96,103.51,358.69z"/>
		</g>
		<g>
			
				<circle style="fill:#92E3A9;stroke:#263238;stroke-linecap:round;stroke-linejoin:round;stroke-miterlimit:10;" cx="222.549" cy="342.707" r="14.374"/>
			<g>
				
					<rect x="222.15" y="335.601" transform="matrix(0.7071 0.7071 -0.7071 0.7071 307.1243 -57.9524)" style="fill:#263238;" width="2.729" height="12.281"/>
				<polygon style="fill:#263238;" points="217.339,345.988 216.278,348.979 219.269,347.918 				"/>
			</g>
		</g>
	</g>
</g>
<g id="Bubble">
	<g>
		<path style="fill:none;stroke:#263238;stroke-linecap:round;stroke-linejoin:round;stroke-miterlimit:10;" d="M278.084,133.191
			h49.789c3.591,0,6.502,2.911,6.502,6.502v29.662c0,3.591-2.911,6.502-6.502,6.502h-6.215l5.74,10.886l-13.261-10.886h-36.052
			c-3.591,0-6.502-2.911-6.502-6.502v-29.662C271.582,136.102,274.493,133.191,278.084,133.191z"/>
		<g style="opacity:0.5;">
			<path style="fill:#263238;" d="M280.753,145.178h44.451c0.454,0,0.823-0.368,0.823-0.823v-0.358c0-0.454-0.368-0.823-0.823-0.823
				h-44.451c-0.454,0-0.823,0.368-0.823,0.823v0.358C279.93,144.809,280.298,145.178,280.753,145.178z"/>
			<path style="fill:#263238;" d="M280.753,151.921h44.451c0.454,0,0.823-0.368,0.823-0.823v-0.358c0-0.454-0.368-0.823-0.823-0.823
				h-44.451c-0.454,0-0.823,0.368-0.823,0.823v0.358C279.93,151.553,280.298,151.921,280.753,151.921z"/>
			<path style="fill:#263238;" d="M280.753,158.664h44.451c0.454,0,0.823-0.368,0.823-0.823v-0.358c0-0.454-0.368-0.823-0.823-0.823
				h-44.451c-0.454,0-0.823,0.368-0.823,0.823v0.358C279.93,158.296,280.298,158.664,280.753,158.664z"/>
			<path style="fill:#263238;" d="M301.761,165.408h23.443c0.454,0,0.823-0.368,0.823-0.823v-0.358c0-0.455-0.368-0.823-0.823-0.823
				h-23.443c-0.455,0-0.823,0.368-0.823,0.823v0.358C300.938,165.039,301.306,165.408,301.761,165.408z"/>
		</g>
	</g>
</g>
<g id="Character">
	<g>
		<path style="fill:#FFFFFF;stroke:#263238;stroke-linecap:round;stroke-linejoin:round;stroke-miterlimit:10;" d="M340.22,326.29
			c0,0-0.01,0.02-0.02,0.06c-0.48,1.02-7.4,15.79-15.83,29.98c-2.21,3.73-4.52,7.41-6.85,10.8c-5.07,7.38-10.21,13.35-14.48,15.21
			c-13.99,6.09-6.04-41.63-6.04-41.63s7.23-8.19,13.09-19.8c1.67-3.3,3.61-7.13,5.64-10.97c1.56-2.95,3.16-5.9,4.73-8.63
			c3.55-6.2,6.86-11.2,8.87-12.18c2.2-1.08,5.24,10.07,7.54,20.44C338.8,318.2,340.22,326.29,340.22,326.29z"/>
		<path style="fill:#263238;" d="M340.22,326.29c0,0-0.01,0.02-0.02,0.06c-0.48,1.02-7.4,15.79-15.83,29.98
			c2.54-22.71,0.16-37.9,0.16-37.9c-5.41-8.18-8.8-8.49-8.8-8.49c1.56-2.95,3.16-5.9,4.73-8.63l7.16-6.69l9.25,14.95
			C338.8,318.2,340.22,326.29,340.22,326.29z"/>
		<path style="fill:#263238;" d="M404.745,173.571c12.637,9.148,23.695,41.473,19.475,62.473s17.486,27.045,17.407,60.146
			c-0.022,9.243-28.615,46.799-61.846,26.755c-33.231-20.044-42.461-29.896-39.297-50.025c3.165-20.129,3.297-33.316-2.703-50.195
			S381.808,156.967,404.745,173.571z"/>
		<g>
			<path style="fill:#92E3A9;" d="M453.36,315.32l-7.06,4.79c-1.75,10.87-4.91,22.84-9.55,33.75
				c-8.89,20.87-16.76,33.31-19.51,37.42c0,0,0,0.01-0.01,0.02c-0.68,1-1.05,1.5-1.05,1.5l7.38,27.67c0,0-49.24,51.19-103.61,43.8
				l3.63-28.99l4.89-38.96l1.59-12.67c0,0-0.67-9.09-1.74-20.28c-0.73-7.71-1.65-16.42-2.69-23.84c-0.04-0.3-0.06-0.63-0.05-1.01
				c0.08-4.68,3.75-14.52,3.75-14.52c-3.1-4.91-6.04-9.43-8.39-13c-3.16-4.79-5.25-7.87-5.25-7.87s11.03-13.52,11.62-15.06
				c3.48-9.11,15.64-7.41,15.64-7.41s1.05-1.19,3.28-1.76c5.78-1.45,22.21,10.07,31.18,10.16c8.96,0.09,53.01-11.77,53.01-11.77
				l4.48,1.61c0,0,6.07-0.72,10.81,8.06C447.99,291.17,453.36,315.32,453.36,315.32z"/>
			<g>
				<path style="opacity:0.3;fill-opacity:0.7;" d="M374.3,429.36c0,0-30.6,10.33-50.72,5.92l4.89-38.96
					C332.83,400.61,358.11,424.97,374.3,429.36z"/>
				<path style="opacity:0.3;fill-opacity:0.7;" d="M329.33,324c-3.1-4.91-6.04-9.43-8.39-13c2.08-5.01,5.17-9.63,9.45-9.36
					C330.39,301.64,327.4,314.92,329.33,324z"/>
				<path style="opacity:0.3;fill-opacity:0.7;" d="M428.57,315.32c-5.49,1.82-17.93,7.33-17.93,7.33l-2.298-2.671l8.846-12.684
					c0,0-6.228,2.529-8.846,5.694c-2.617,3.165-3.309,10.244-3.408,10.215c-0.099-0.029-2.296-7.444-2.296-7.444
					s-0.968,3.558-1.462,9.393c-0.283,3.345,3.392,8.8,6.581,12.848L402.2,367.59c-7.07-4.3-14.14-8.6-21.21-12.89
					c-3.33-2.02-6.65-4.04-9.97-6.06c-0.82-0.5-1.78-0.94-2.53-1.54c-1.16-0.94-1.92-2.16-3.27-2.97c-1.51-0.91-3.23-1.44-4.94-1.85
					c-6.32-1.49-12.98-1.56-19.33-0.18c-2.68,0.58-5.43,1.41-8.09,0.78c-2.74-0.65-4.94-2.76-7.28-4.36
					c-0.01,0.38,0.01,0.71,0.05,1.01c1.04,7.42,1.96,16.13,2.69,23.84c0.38,0,0.76-0.01,1.14-0.01c0.74-0.01,1.49-0.01,2.2,0.18
					c1.53,0.42,4.57,7.88,5.62,9.06c7.67,8.56,20.5,23.03,29.82,29.75c-1.86-5-11.59-22.5-11.41-28.04c2.09,0.7,3.72,2.31,5.4,3.74
					c5.06,4.34,11.1,7.36,17.06,10.34c4.39,2.2,8.79,4.39,13.18,6.59c3.98,1.99,9.27,5.13,13.87,3.9c3.77-1.01,8.52-4.79,11.53-7.18
					c0.17-0.13,0.34-0.27,0.5-0.4c0.01-0.01,0.01-0.02,0.01-0.02c2.75-4.11,10.62-16.55,19.51-37.42
					c4.64-10.91,7.8-22.88,9.55-33.75l7.06-4.79C453.36,315.32,434.06,313.5,428.57,315.32z"/>
			</g>
			<path style="fill:none;stroke:#263238;stroke-linecap:round;stroke-linejoin:round;stroke-miterlimit:10;" d="M319.952,464.275
				l10.107-80.621c0,0-1.899-25.928-4.432-44.126c-0.568-4.079,3.702-15.527,3.702-15.527
				c-7.269-11.503-13.636-20.869-13.636-20.869s11.029-13.521,11.617-15.063c3.481-9.111,15.644-7.409,15.644-7.409
				s1.047-1.194,3.273-1.756c5.782-1.457,22.213,10.068,31.18,10.157c8.967,0.09,53.011-11.776,53.011-11.776l4.483,1.619
				c0,0,6.066-0.724,10.813,8.06c2.276,4.211,7.648,28.357,7.648,28.357l-7.058,4.785c-1.755,10.874-4.915,22.845-9.557,33.75
				c-11.077,26.022-20.572,38.946-20.572,38.946l7.385,27.665"/>
			<path style="fill:none;stroke:#263238;stroke-linecap:round;stroke-linejoin:round;stroke-miterlimit:10;" d="M418.352,305.769
				c0,0-12.53,16.185-12.225,19.232c0.305,3.047,6.11,6.087,6.11,6.087"/>
			<path style="fill:none;stroke:#263238;stroke-linecap:round;stroke-linejoin:round;stroke-miterlimit:10;" d="M402.198,312.283
				c0,0,1.055,7.159,1.055,12.718c0,5.56,15.099,14.79,15.099,14.79"/>
			<path style="fill:none;stroke:#263238;stroke-linecap:round;stroke-linejoin:round;stroke-miterlimit:10;" d="M329.328,324.001
				c0,0-1.049-21.399,2.283-25.089"/>
			<path style="fill:none;stroke:#263238;stroke-linecap:round;stroke-linejoin:round;stroke-miterlimit:10;" d="M325.627,306.824
				c0,0,1.728,11.077,3.545,13.187"/>
			<path style="fill:none;stroke:#263238;stroke-linecap:round;stroke-linejoin:round;stroke-miterlimit:10;" d="M381.89,315.321
				c0,0-21.626,13.921-41.67,15.767"/>
			<path style="fill:none;stroke:#263238;stroke-linecap:round;stroke-linejoin:round;stroke-miterlimit:10;" d="M340.22,376.187
				c0,0,24.264,29.275,40.088,33.231"/>
			<path style="fill:none;stroke:#263238;stroke-linecap:round;stroke-linejoin:round;stroke-miterlimit:10;" d="M416.176,392.802
				c0,0-5.505-3.987-3.939-6.345"/>
			<path style="fill:none;stroke:#263238;stroke-linecap:round;stroke-linejoin:round;stroke-miterlimit:10;" d="M402.198,416.595
				c0,0-34.422,19.196-52.024,17.614"/>
		</g>
		<path style="fill:#FFFFFF;stroke:#263238;stroke-linecap:round;stroke-linejoin:round;stroke-miterlimit:10;" d="M309.835,355.081
			c-4.488-16.497-11.833-21.883-16.686-39.546c-1.438-5.232-5.704-21.188-5.704-21.188s5.445-16.988-5.442-26.68
			c0,0-2.986,0-8.118,11.778c-3.578,8.213-1.582,16.253-1.582,16.253s3.387,20.728,4.125,26.303
			c1.778,13.431,5.645,35.922,11.017,47.209c5.743,12.067,11.807,14.768,16.348,12.283"/>
		<g>
			<g>
				<defs>
					<path id="XMLID_949_" d="M289.335,290.73l11.613,3.853c1.228,0.316,3.652-1.734,3.545-2.997l-3.445-40.589
						c-0.139-1.639-1.299-3.01-2.892-3.42l-12.866-2.794c-1.228-0.316-4.318,1.153-4.211,2.416l5.364,40.111
						C286.582,288.949,287.742,290.321,289.335,290.73z"/>
				</defs>
				<use xlink:href="#XMLID_949_"  style="overflow:visible;fill:#92E3A9;"/>
				<clipPath id="XMLID_00000116226854846292792910000006089542652542371233_">
					<use xlink:href="#XMLID_949_"  style="overflow:visible;"/>
				</clipPath>
				<path style="opacity:0.3;clip-path:url(#XMLID_00000116226854846292792910000006089542652542371233_);fill-opacity:0.7;" d="
					M289.335,290.73l11.613,3.853c1.228,0.316,3.652-1.734,3.545-2.997l-3.445-40.589c-0.139-1.639-1.299-3.01-2.892-3.42
					l-12.866-2.794c-1.228-0.316-4.318,1.153-4.211,2.416l5.364,40.111C286.582,288.949,287.742,290.321,289.335,290.73z"/>
				
					<use xlink:href="#XMLID_949_"  style="overflow:visible;fill:none;stroke:#263238;stroke-linecap:round;stroke-linejoin:round;stroke-miterlimit:10;"/>
			</g>
			<path style="fill:#92E3A9;stroke:#263238;stroke-linecap:round;stroke-linejoin:round;stroke-miterlimit:10;" d="M287.423,291.73
				l12.866,2.794c1.228,0.316,2.4-0.675,2.292-1.938l-3.445-40.589c-0.139-1.639-1.299-3.01-2.892-3.42l-12.866-2.794
				c-1.228-0.316-2.4,0.675-2.292,1.938l3.445,40.589C284.67,289.949,285.83,291.321,287.423,291.73z"/>
			<path style="opacity:0.3;fill-opacity:0.7;" d="M294.557,259.508l2.075,0.451c0.198,0.051,0.387-0.109,0.37-0.313l-0.556-6.546
				c-0.022-0.264-0.21-0.485-0.466-0.551l-2.075-0.451c-0.198-0.051-0.387,0.109-0.37,0.313l0.556,6.546
				C294.113,259.221,294.3,259.442,294.557,259.508z"/>
		</g>
		<g>
			<path style="fill:#FFFFFF;stroke:#263238;stroke-linecap:round;stroke-linejoin:round;stroke-miterlimit:10;" d="
				M276.461,279.855c-0.5-5.691,4.681-14.232,8.124-14.232c3.443,0,13.938,8.079,13.938,8.079c4.06,2.943,2.049,5.744,2.049,5.744
				c2.389,1.579,3.041,3.714,1.951,4.704c-1.22,1.108-4.564,0-4.564,0s3.48,2.544,2.613,3.793c-2.049,2.953-8.793-0.943-8.793-0.943
				s3.914,2.581,3.689,3.071c-1.476,3.223-7.867-0.534-7.867-0.534l-4.493,2.301c0,0,0.05,3.804-4.093,3.861"/>
			<path style="fill:#FFFFFF;stroke:#263238;stroke-linecap:round;stroke-linejoin:round;stroke-miterlimit:10;" d="
				M300.573,279.445c0,0-9.822-6.346-11.06-6.518c-1.238-0.172-5.788-1.16-5.788-1.16"/>
			<path style="fill:#FFFFFF;stroke:#263238;stroke-linecap:round;stroke-linejoin:round;stroke-miterlimit:10;" d="M297.96,284.149
				c0,0-7.978-4.12-9.439-4.12c-1.534,0-6.518-1.125-6.518-1.125"/>
			<path style="fill:#FFFFFF;stroke:#263238;stroke-linecap:round;stroke-linejoin:round;stroke-miterlimit:10;" d="M291.78,286.998
				c0,0-2.121-1.472-2.952-1.739c-0.83-0.267-5.719,0-5.719,0"/>
		</g>
		<path style="fill:#FFFFFF;stroke:#263238;stroke-linecap:round;stroke-linejoin:round;stroke-miterlimit:10;" d="M391.78,350.868
			c0,0,6.198-3.484,11.736-16.512c5.538-13.027,7.121-11.708,7.121-11.708s12.132-5.952,17.934-7.328c5.802-1.376,16.352,0,16.352,0
			s-8.967,26.104-18.198,43.09c-9.231,16.985-16.589,27.017-21.491,28.047C400.331,387.487,391.78,350.868,391.78,350.868z"/>
		<g>
			<path style="fill:#FFFFFF;stroke:#263238;stroke-linecap:round;stroke-linejoin:round;stroke-miterlimit:10;" d="M427.78,278.958
				c0,0-44.141,23.512-56.9,23.382c-12.76-0.13-20.706-21.965-20.706-21.965s23.596-0.526,20.856-11.806
				c-0.04-0.19-0.09-0.4-0.15-0.6c-1.13-3.94-5.46-10.84-7.07-13.32c-0.38-0.59-0.61-0.93-0.61-0.93l34.93-26.08
				c-2.026,26.371,1.856,37.93,4.23,42.267C406.429,277.341,427.78,278.958,427.78,278.958z"/>
			<path style="fill:#263238;" d="M388.22,242.42c0,0-7.28,20.62-17.19,26.15c-0.04-0.19-0.09-0.4-0.15-0.6
				c-1.13-3.94-5.46-10.84-7.07-13.32L388.22,242.42z"/>
			<path style="fill:none;stroke:#263238;stroke-linecap:round;stroke-linejoin:round;stroke-miterlimit:10;" d="M373.088,296.115
				c0,0,2.472-4.771,6.165-5.339c3.692-0.568,13.852-0.659,32.641-3.778"/>
			<path style="fill:none;stroke:#263238;stroke-linecap:round;stroke-linejoin:round;stroke-miterlimit:10;" d="M367.423,296.115
				c0,0-1.588-3.716-2-5.339s-10.24-3.66-13.502-6.333"/>
		</g>
		<g>
			<path style="fill:#263238;" d="M340.705,184.229c-6.462,7.053-8.397,30.057-5.166,39.947c0,0,16.207,2.324,19.965-0.593
				C359.262,220.665,340.705,184.229,340.705,184.229z"/>
			<path style="fill:#FFFFFF;stroke:#263238;stroke-linecap:round;stroke-linejoin:round;stroke-miterlimit:10;" d="M401.67,230.703
				c1.561-6.892,9.83-40.295-9.644-55.076c-19.474-14.781-43.218,4.931-46.547,9.582c-13.425,18.757-7.478,33.675-4.965,42.661
				c2.513,8.986,1.256,19.881,13.82,34.85c5.28,6.29,14.779,2.942,24.134-3.567c5.613-3.905,13.507-10.764,13.707-17.373"/>
			<path style="fill:none;stroke:#263238;stroke-linecap:round;stroke-linejoin:round;stroke-miterlimit:10;" d="M357.165,216.057
				c0,0,10.546-1.878,16.517,1.863"/>
			<path style="fill:#263238;" d="M368.317,226.26c0.267,1.617-0.303,3.057-1.273,3.217c-0.97,0.16-1.973-1.021-2.239-2.638
				c-0.267-1.617,0.303-3.057,1.273-3.217C367.047,223.462,368.05,224.643,368.317,226.26z"/>
			<path style="fill:#263238;" d="M347.236,226.26c0.267,1.617-0.303,3.057-1.273,3.217c-0.97,0.16-1.973-1.021-2.24-2.638
				c-0.267-1.617,0.303-3.057,1.273-3.217C345.966,223.462,346.969,224.643,347.236,226.26z"/>
			<path style="fill:none;stroke:#263238;stroke-linecap:round;stroke-linejoin:round;stroke-miterlimit:10;" d="M345.479,216.165
				c0,0-5.82-2.087-7.699,0.588"/>
			<path style="fill:none;stroke:#263238;stroke-linecap:round;stroke-linejoin:round;stroke-miterlimit:10;" d="M349.154,225.462
				c0.594,2.275-3.986,12.561-3.674,13.451c0.312,0.89,2.586,2.473,6.641,2.868"/>
			<path style="fill:none;stroke:#263238;stroke-linecap:round;stroke-linejoin:round;stroke-miterlimit:10;" d="M354.121,248.851
				c0,0,8.44,0,13.302-3.429"/>
			<path style="fill:#263238;" d="M343.121,179.275c0,0-8.901,8.263-3.165,24.527c1.814,5.143,5.523,9.05,5.523,9.05
				c5.949-3.354,8.916,1.875,12.477,0.17c3.56-1.704,9.232,1.915,12.924,1.193c3.692-0.721,7.648,0.06,10.417,2.537
				c2.769,2.478,2.769,7.904,6.923,10.531c0,0,2.42-8.495,7.517-7.262c5.096,1.232,0.593,16.022,0.593,16.022
				s9.495-10.286,11.473-27.297c1.978-17.011-4.719-31.846-16.022-35.011c0,0-3.758-7.319-16.615-6.132
				C362.308,168.791,350.658,168.026,343.121,179.275z"/>
			<path style="fill:#FFFFFF;stroke:#263238;stroke-linecap:round;stroke-linejoin:round;stroke-miterlimit:10;" d="M391.78,222.198
				c0,0,4.747-11.638,11.67-6.808c6.923,4.83-1.385,19.665-4.747,23.424c-3.363,3.758-4.352-0.396-4.747-1.582"/>
			<g style="opacity:0.2;">
				<path style="fill:none;stroke:#FFFFFF;stroke-linecap:round;stroke-linejoin:round;stroke-miterlimit:10;" d="M346.239,187.734
					c0.192-2.915,1.085-5.739,2.553-8.261"/>
				<path style="fill:none;stroke:#FFFFFF;stroke-linecap:round;stroke-linejoin:round;stroke-miterlimit:10;" d="M354.121,207.758
					c-4.284-4.782-7.542-11.209-7.894-17.673"/>
				<path style="fill:none;stroke:#FFFFFF;stroke-linecap:round;stroke-linejoin:round;stroke-miterlimit:10;" d="M363.204,199.722
					c2.421,3.921,5.812,7.24,9.884,9.421"/>
				<path style="fill:none;stroke:#FFFFFF;stroke-linecap:round;stroke-linejoin:round;stroke-miterlimit:10;" d="M360.772,179.473
					c-3.28,5.266-1.393,12.831,1.164,17.969"/>
				<path style="fill:none;stroke:#FFFFFF;stroke-linecap:round;stroke-linejoin:round;stroke-miterlimit:10;" d="M394.104,209.442
					c2.477,1.278,5.078,2.316,7.764,3.064"/>
				<path style="fill:none;stroke:#FFFFFF;stroke-linecap:round;stroke-linejoin:round;stroke-miterlimit:10;" d="M370.88,186.396
					c4.884,8.822,12.447,16.813,21.141,21.899"/>
			</g>
		</g>
		<g>
			<path style="fill:#FFFFFF;stroke:#263238;stroke-linecap:round;stroke-linejoin:round;stroke-miterlimit:10;" d="
				M321.128,273.139c0,0-3.009,0.003-3.272,2.193c-0.264,2.19,4.204,5.044,4.204,5.044"/>
			<path style="fill:#FFFFFF;stroke:#263238;stroke-linecap:round;stroke-linejoin:round;stroke-miterlimit:10;" d="
				M405.397,352.691c-6.758-10.308-16.302-16.757-24.826-28.197c-11.635-15.615-19.514-29.608-19.514-29.608l-9.047-16.969
				c0,0-11.077-13.358-15.56-14.987c-4.483-1.629-29.011-2.42-29.011-2.42s-1.012,2.656,2.791,3.965s15.397,2.431,15.397,2.431
				s-3.419,1.477-4.21,2.683c-0.791,1.206,0,11.149,1.582,13.167c1.582,2.018,7.648,3.864,7.648,3.864s0.802,6.969,6.731,10.474
				c5.929,3.504,8.83,3.504,8.83,3.504s5.587,9.481,7.913,16.248c4.964,14.437,17.612,47.245,26.714,59.077
				c10.782,14.017,24.755,14.538,29.806,5.629"/>
			<path style="fill:none;stroke:#263238;stroke-linecap:round;stroke-linejoin:round;stroke-miterlimit:10;" d="M335.955,272.181
				c0,0-8.604,0.989-9.692,1.78c-1.088,0.791-0.569,6.927,0,9.08s1.877,2.695,1.877,2.695"/>
			<path style="fill:none;stroke:#263238;stroke-linecap:round;stroke-linejoin:round;stroke-miterlimit:10;" d="M332.455,267.099
				c0,0-8.467,2.114-8.961,3.202s-1.088,5.77-0.396,9.116c0.692,3.346,0.892,4.39,2.186,5.026"/>
			<path style="fill:none;stroke:#263238;stroke-linecap:round;stroke-linejoin:round;stroke-miterlimit:10;" d="M325.627,266.907
				c0,0,2.317-0.957,3.702-1.253"/>
			<path style="fill:none;stroke:#263238;stroke-linecap:round;stroke-linejoin:round;stroke-miterlimit:10;" d="M330.791,278.958
				c0,0,1.703,2.387,5.79,2.651c0,0-1.851,7.121,1.448,11.736"/>
			<path style="fill:none;stroke:#263238;stroke-linecap:round;stroke-linejoin:round;stroke-miterlimit:10;" d="M332.455,280.376
				c0,0-1.916,1.55-1.664,2.381"/>
		</g>
		<path style="fill:#263238;" d="M410.637,322.648c0,0,17.038-7.438,19.464-7.939c2.426-0.501,20.889,0.411,20.889,0.411
			s-2.617,2.693-7.77,4.979c0,0-0.406-3.384-5.022-3.78C433.582,315.923,410.637,322.648,410.637,322.648z"/>
	</g>
</g>
</svg>
